<svg xmlns="http://www.w3.org/2000/svg" viewBox="0 0 2725.46 2690.42"><defs><style>.cls-1{fill:#f4abba;}.cls-2{fill:#e95a6f;}.cls-3{fill:#ffcc4d;}.cls-4{fill:#fff;}</style></defs><g id="Layer_2" data-name="Layer 2"><g id="Layer_1-2" data-name="Layer 1"><path class="cls-1" d="M1808.45,375.21c-15-48.13-21.53-97.55-21-147.79.38-36.2,2.6-72.28,12.56-107.54,19.15-67.84,64.4-107.1,134.65-115.71,9.93-1.22,20-1.44,29.76-3.57,10.82-2.37,12.85,2.46,13.53,11.71,1.34,18,8.45,34.06,19.22,48.41,17.24,23,36,23.07,53.11.24,11.06-14.74,18.33-31.24,19.51-49.77.58-9.16,3.28-11.6,13-10.74,36.9,3.24,72.71,9.79,104.39,30.21C2228,56.93,2245,97.75,2252.93,143.05c16.77,95.18,4.56,187.73-27.31,278.24-1.41,4-2.78,8.06-4,12.15-.22.72.46,1.7,1,3.35,10-3.71,17.27-11.37,25.42-17.36,70.9-52.05,148.88-87.79,236-101.85,55.4-8.94,107.75-3.83,149.31,39.9,22,23.15,35.84,51.31,48.43,80.23,3.2,7.34-1,8.65-6.19,11.05-18.53,8.56-34.18,20.77-45,38.41-13.11,21.46-8.1,37.09,15.41,46.13a96.4,96.4,0,0,0,57.56,4.26c4.48-1,10.09-4.07,12,4.48,8.87,39.77,15.7,79.4,2.5,119.71-11.43,34.88-34.87,59.69-64.93,78.85-51.24,32.67-107.82,51.59-167.17,62.56-29.52,5.46-59.34,9.08-89.49,8.72-5.17-4.83-2.82-10.65-1.89-16.11,5.35-31.39-4.95-56.74-30.95-74.53-26.26-18-53.6-16.85-80.78-.75-7.25,4.29-12.47,12.13-21.87,12.76-19.9-4.79-39.94-9-59.88-13.58-7.86-1.81-15.9-3.53-21.71-10-5-16.51-8.43-33.3-8.84-50.61,1-3.91,3.91-6.38,7.08-8.46,21.29-13.92,42.38-28.13,64.31-41,7.44-1.08,13.95,2.4,20.79,4.28,40,11,82.07-15.07,89.89-55.78,8.11-42.23-20.8-82.63-62.19-86.89C2247,466.71,2209,498.8,2208,540.93c-.12,5.19,1.24,10.49-2,15.25-8.76-.31-15.81,3.69-22.7,8.59-12,8.52-24.87,15.61-37.1,23.73-5.13,3.41-10.38,6.79-17.06,6-15.7-7.86-31.2-16-42.72-29.85-3.08-8.65-.15-16.94,1.57-25.29,9.27-44.73,21.05-88.93,28.54-134,2.1-7.7,9.43-8.81,15.18-11.78,30.14-15.54,45-43.45,40.79-76.71-3.86-30.18-27.05-54.19-58.67-60.75-28.13-5.83-58,6.37-73.67,30.1-17,25.74-17.13,57.11-.48,82.15,4.41,6.64,11.34,11.88,12,20.74-10.23,50.18-21.76,100.06-33.14,150-1.18,5.16-2.74,10.07-6.55,14-13.53,8.38-28.77,10.52-44.18,12.06-5.43-1.23-9.2-4.91-12-9.32-14.75-23.55-31.58-45.83-43.69-71-.35-13.82,6.55-26.3,6.07-40.52-1.5-44.9-44.68-79-88.63-69C1822.77,376.75,1815.49,382.09,1808.45,375.21Z"/><path class="cls-1" d="M2018.77,1055c-18.71,69.08-48.46,132.82-91.81,190-16.74,22.08-34.8,43-55.24,61.78C1813.26,1360.6,1754,1369,1683,1333.52c-2.55-1.28-5.16-2.44-7.63-3.85-9.07-5.19-20.91-8.47-26.4-16.22-6.61-9.33,6.54-17.47,9.17-27,4.13-15,6.75-29.66,4.9-45-2.35-19.48-14.8-28.74-33.89-24.73-21.13,4.44-39.41,14.72-53.39,31-6.9,8-10.36,6.61-17.39.36-25.51-22.66-49-46.86-63-78.48-18-40.51-13.75-81.08,3.2-120.48,34.48-80.15,89-144.81,157.11-198.45,16-12.62,32.73-24.39,51.73-38.48-8.33,0-14.17-.15-20,0-92.38,2.62-180.86-13.54-264.11-54.84a253.35,253.35,0,0,1-43.57-27.11c-45.82-35.8-63.38-83-55.75-140,1.95-14.59,4.76-29.07,6.91-43.64,1.31-8.88,5.49-11.17,14.33-9a89.78,89.78,0,0,0,61.25-6.57c18.38-8.85,22.51-21.67,12.94-39.76-10.42-19.71-27.09-32.92-46.87-42.35-4.86-2.31-10.19-3-6.85-10.64,15.4-35.06,32.21-69.23,63-93.88,32.78-26.28,71.06-33.44,111.67-29.37,87,8.74,165.57,40.61,237.61,89.45,3.38,5.72.9,11.23-1.13,16.4-17,43.51,12.58,91.1,58.45,98.21,4.66.72,9.45,1.18,13.78,3.39,20.49,19.46,31.48,45.54,47.33,68.25,3.76,5.38,7.14,11.16,7.42,18.11-4,14.85-11.34,27.55-24,36.79-20.36,1-39.22-6.7-58.75-10.48-18.7-3.61-37.23-8.17-55.85-12.19-6.07-1.31-12.15-2.51-18.39-1.2-7-1-8.66-6.89-10.63-12.11-14-37-51.18-49.76-75.85-46.57-34.63,4.46-59.82,28.55-64.78,64.41-3.84,27.83,7.49,50.6,29.62,67.14,22.91,17.12,47.94,18.72,74.25,7.12,10.9-4.81,18.21-15.57,30.61-17.53,39,8.67,78,17.13,116.93,26.05,7.43,1.71,14.84,3.52,20.86,8.68,6.45,11.42,8.57,23.74,7.6,36.71-1.83,5.8-6.34,9.36-11.16,12.34-15.65,9.65-30.23,21-47.07,28.74-5.43.48-10.24-1.87-15.18-3.46-30.07-9.7-56.08-1.54-76.55,20.84-20.22,22.1-24.88,48.55-13.34,77,11.92,29.39,44,47.56,77.66,43.85,30.49-3.36,56.7-28.89,62-60.59.94-5.6.68-11.43,3.51-16.64,17.45-14.61,35.92-27.66,57.17-36.35,15.31,3.4,26.11,13,34.89,25.4,1.3,22.72-7.93,43.63-11.53,65.52-1.69,10.27-4.83,20.3-4.56,30.86-1.25,6.88-7.27,8.18-12.39,10.48-32,14.45-49.56,45.17-44.58,78.31s30.82,57.89,65.51,61.86c26.35,3,47.06-8.09,64-27.69C2007.78,1061.46,2010.1,1053.72,2018.77,1055Z"/><path class="cls-1" d="M2378,839.86c71.08,52.35,128,116.85,165.9,196.95,34.37,72.71,25,128.06-29.37,187.26-1.62,1.75-3.27,3.49-5,5.1-8.77,8.07-16.38,19.74-26.71,23.16-11.24,3.73-15.8-12.53-25-18.07-11.92-7.16-23.68-14.07-37.36-17.15-20.76-4.69-33.49,4.22-35.89,25.18-2.52,22.08,2.55,42.51,13.47,61.67,2.17,3.8,6.71,7.3-.31,11.43-29.2,17.18-58.92,32.85-93,38-48.78,7.44-88.92-11-123.9-42.55-70.43-63.44-115.84-142.86-145.29-232.09-3.72-11.26-6.75-22.76-10.09-34.15-6.85-2.54-7.16-8.85-6.81-14.25,1.5-22.92-4.63-43.11-19.66-60.59a14.8,14.8,0,0,1-3.33-9.25c3.69-27.95,11.46-55,17.38-82.54a28.23,28.23,0,0,1,7.44-13.66c13.07-5.87,27-4.46,40.74-4.82,5.86,1.6,9.75,5.74,12.92,10.58,26.87,41,52.25,82.91,79.18,123.85a33.32,33.32,0,0,1,4.62,10.37c-.91,13.25-5.9,25.74-5.56,39.42.9,36.8,25,65.27,61.89,71.21,33.75,5.43,67.29-14.91,79.08-48a73,73,0,0,0-50.72-95.12c-6.93-1.79-14.16-2.21-20.87-4.89-6-3.39-10.11-8.61-13.67-14.31-23.46-37.61-47.8-74.66-71.24-112.29-2.77-4.44-5.79-8.79-6.18-14.29,7.11-17.08,17.53-31.7,32.28-43.1,28.84,1.5,56.34,9.46,83.85,17.4,6.06,3.67,8.38,10.15,11.76,15.82,22.23,37.34,64.39,48.81,102.49,28C2366.22,841.32,2371.14,836.53,2378,839.86Z"/><path class="cls-2" d="M2378,839.86c-19.64,13.61-40.44,24-65.27,19.78-33.08-5.6-55-24.72-65.75-56.53-4.32-3.31-7.25-7.44-7.83-13-1.85-18.09,1.57-35,11.28-50.49,2.58-4.11,5.87-7.53,11.25-7.73,26.56-30.28,65-37.85,99.11-19.51,32.8,17.64,47.62,54.36,37.41,92.66-.61,2.28-1.16,4.58-1.74,6.87Z"/><path class="cls-2" d="M1849.48,525.85c-61.7,1.09-104.73-61.79-71.6-121.41,8.55-11.47,19.86-20,30.57-29.24,17.41-4.75,34.54-10.15,53.19-5.7,49.65,11.83,75.53,62.09,55.64,109-.93,2.18-1.74,4.41-2.61,6.62-2.15,19.53-17.35,28.17-32,36.1C1872.77,526.55,1861.75,533.33,1849.48,525.85Z"/><path class="cls-2" d="M1997.85,961.13c20.63,19.33,29.4,43,26.34,71.15-.44,4,.78,8.27,1.21,12.4-5.41,1.4-3,7.84-6.64,10.36-15,23.27-33.78,40.58-63.11,44.24-38.33,4.77-77.88-21.93-86-59.51-9.18-42.38,14.53-82.78,54.78-93.45a29.86,29.86,0,0,0,5.09-2.41C1949,930.33,1988.92,940.4,1997.85,961.13Z"/><path class="cls-3" d="M2162.7,785.86a248.25,248.25,0,0,1-30.32,39.28c-8.11,18.83-26.26,25.13-42.54,33.41-7.92,4-16.61,7.57-26.09,4.72L2021,868c-6.28,4.41-13.27,4.29-20.39,3.2a170.14,170.14,0,0,1-45.86-13.89,20.83,20.83,0,0,1-10.67-10.76l-30.8-23.33a10.9,10.9,0,0,1-9-3.44c-14.83-15.13-25-33.12-32.39-52.84-1.23-3.28-.08-6.55.36-9.81q-3.21-18.45-6.41-36.92c-3.91-4-5.32-8.83-5.33-14.28a144.72,144.72,0,0,1,10.18-52.85c1.82-4.7,5.33-7.74,9.47-10.23l21.15-34.15c4.63-17.88,20.15-25.69,33.49-35,9.07-6.36,18.43-14,31.1-11.45l43.91-10.87c5.08-3.84,10.6-6.15,17.16-5.82a185.26,185.26,0,0,1,48.88,9,24,24,0,0,1,13,10.57c14.81,7.31,28.29,16.67,41.24,26.83,21.3,8.66,45.9,46.21,43.11,65.79a186.3,186.3,0,0,1,8.86,51.45c1.48,1.88,3.49,3.89,3.49,6.13C2185.57,741.26,2183.58,766.65,2162.7,785.86Z"/><path class="cls-2" d="M2203.81,557.26c-1.55-46.13,14.46-74.24,50-87.8,31.89-12.17,70.72-.59,90.67,27.05,21,29.1,20.35,68.11-1.62,95.65-22.62,28.35-59.79,37.88-92.48,23.67-3-1.32-6-2.87-9-4.32-3.91,2-7.56.64-10.71-1.48-15.66-10.55-25.08-25.44-29.44-43.62A9,9,0,0,1,2203.81,557.26Z"/><path class="cls-2" d="M2049.57,388.14c-24.9-23.76-34.92-51.92-23.53-85.36,10.68-31.33,33.05-48.75,66.06-53.16,38.69-5.16,76.65,21.92,85.41,61.64,8.62,39.14-15.4,80.4-53,91.07-2.23.63-4.36,1.63-6.54,2.46C2099.05,418.58,2059.21,408.89,2049.57,388.14Z"/><path class="cls-4" d="M2049.57,388.14c20.18,16.34,43.3,20.59,68.42,16.65,8.18,4.35,3.15,11,2.06,16.13-9.29,43.47-19.14,86.82-28.75,130.22-1,4.61-1.62,9.32-2.42,14-25.38-10.11-51.78-14.39-79-13.78,10.43-46.48,20.75-93,31.39-139.42C2043.11,403.75,2042.75,394.63,2049.57,388.14Z"/><path class="cls-4" d="M1965.94,562.2c-24.94,10.76-46,27-64.59,46.49l-51.87-82.84c28.27-3.13,49.93-16.84,65.19-40.77,15.83,17.95,26.27,39.51,39.62,59.12C1958.31,550.1,1962.06,556.2,1965.94,562.2Z"/><path class="cls-4" d="M2162.7,785.86c11.72-24.23,18.76-49.64,19.39-76.68,21.11,4.76,42.3,9.2,63.28,14.5,5.76,1.45,13.93-.47,16.34,8.18-16.42,21.37-21.06,45.18-14.7,71.25C2218.2,800.79,2190.84,791.42,2162.7,785.86Z"/><path class="cls-4" d="M2203.81,557.26c4.33,23.79,17.22,41.63,37.64,54.25,0,3.24-1.92,5.15-4.44,6.73-21.18,13.3-41.32,28.26-63.78,39.49-9.14-25.36-24.49-46.65-43.11-65.79,20.11-12.59,40.33-25,60.25-37.89C2196.59,550,2201.11,548.66,2203.81,557.26Z"/><path class="cls-2" d="M1858.12,857.5c2.68,60-53.82,98.38-106.24,78.9-42.72-15.87-62.89-63.77-45-104.34,19.43-44,67-60.23,111.2-37.9,5.63-1.55,10.18.72,14.37,4.11,14,11.35,23.77,25.48,28,43.18C1861.86,847.11,1862.52,852.68,1858.12,857.5Z"/><path class="cls-2" d="M1728.89,686c-23.32,25.62-51.72,35.36-85.06,24.62s-50.8-35.83-54.73-69.94c-4.47-38.7,26.15-75.67,67.48-82.87,37.7-6.56,77.17,19.13,86.37,56.14a46.84,46.84,0,0,0,2.68,6.46C1758.94,638.9,1749.29,676.68,1728.89,686Z"/><path class="cls-4" d="M1728.89,686c15.79-19.25,19.87-41.51,16.74-65.59,1.45-7.83,7.1-6.38,12.2-5.23q61.22,13.75,122.37,27.71a187.51,187.51,0,0,0-14.32,77.36q-63.29-14.09-126.58-28.14C1735.1,691.13,1730.66,690.89,1728.89,686Z"/><path class="cls-4" d="M1944.09,846.54A195.75,195.75,0,0,0,2021,868c-5.9,26.79-11.71,53.59-17.8,80.34-1,4.47-1.28,9.5-5.35,12.8-20.12-16.31-43.11-21.2-68.35-17.22-7.58-1.41-5-6.35-4-11Q1934.91,889.76,1944.09,846.54Z"/><path class="cls-4" d="M1858.12,857.5c-2.78-27.79-15.88-49-40-63.34,15.43-16.19,36.16-24.63,54.19-37,9.82,24.41,23,46.77,41,66.08C1895.5,835.6,1878.21,848.8,1858.12,857.5Z"/><path class="cls-2" d="M2221,963.17c47.9,3.44,75,27.22,82,71.86,6.23,39.79-27.27,81.06-69.8,86-41.73,4.84-83.12-27.5-86.38-67.46-1.42-17.37-.05-34.23,8.78-49.78-.44-1.36-1-2.79-.73-4.17C2159.57,978,2199.81,955.84,2221,963.17Z"/><path class="cls-4" d="M2221,963.17c-28.18,3.25-50.48,16-65.37,40.61-17.37-18.49-28.35-41.35-42.19-62.23-17.07-25.76-33.17-52.16-49.68-78.28,25.24-8.45,48.34-20.76,68.63-38.12Q2176.69,894.15,2221,963.17Z"/><path class="cls-4" d="M591,1216.86C309,1218.2,0,1034.17,0,678.21s309-540,591-540c280.75,0,585.67,103.43,585.67,403L963.12,561.35c0-228.36-91.34-389.55-299.55-389.55-176,0-360,145.07-441.93,366.71a639.2,639.2,0,0,0-40.3,224.33c0,228.35,130.3,417.75,338.5,417.75,177.31,0,361.34-145.07,443.28-368.06H1176.7C1132.37,1020.74,871.78,1218.2,591,1216.86Z"/><path class="cls-4" d="M0,1618.5H642.08c159.85,0,370.74,120.89,370.74,399,0,259.25-193.43,381.49-339.85,396.26H272.68v276.71H0v-22.83H77.91V1708.5c-5.37-39-37.61-67.16-77.91-67.16Zm350.59,22.84c-40.3,0-73.88,29.55-77.91,67.16v685.06H643.42c96.72,0,176-169.25,176-376.11,0-208.21-79.25-376.11-176-376.11Z"/><path class="cls-4" d="M2240.55,2666.24v24.18H1890v-24.18h68.51l-57.76-167.9-667.6,192.08h-86v-22.83c37.61,0,69.85-1.35,96.71-60.45l370.74-921.48c-21.49-28.2-64.47-47-96.71-47v-22.84h272.68l364,1050.43Zm-347.9-188L1628,1709.84,1243.85,2664.9Z"/><path class="cls-4" d="M2374.87,2667.59c40.3,0,73.88-29.55,77.91-68.51V1638.65h-77.91v-22.84h350.59v22.84c-40.3,0-73.88,29.55-77.91,68.51v960.43h77.91v22.83H2374.87Z"/></g></g></svg>